<svg width="148" height="84" viewBox="0 0 148 84" fill="none" xmlns="http://www.w3.org/2000/svg">
<g clip-path="url(#clip0)">
<path d="M43.7532 52.0562H38.566L41.808 32.0082H46.9952L43.7532 52.0562Z" fill="#00579F"/>
<path d="M62.5569 32.496C61.0732 31.9246 59.496 31.6344 57.906 31.64C52.7828 31.64 49.1726 34.368 49.1566 38.272C49.1165 41.152 51.7422 42.752 53.7034 43.712C55.6646 44.672 56.3931 45.312 56.3931 46.208C56.3931 47.552 54.7921 48.168 53.2791 48.168C51.5942 48.2156 49.9232 47.8503 48.4121 47.104L47.7317 46.784L47.0032 51.288C48.8486 52.0021 50.812 52.363 52.7908 52.352C58.2342 52.352 61.7804 49.664 61.8204 45.504C61.8204 43.224 60.4516 41.504 57.4657 40.04C55.6486 39.12 54.5439 38.504 54.5439 37.568C54.5439 36.632 55.4805 35.84 57.5298 35.84C58.8626 35.8107 60.1846 36.0843 61.3962 36.64L61.8685 36.856L62.5729 32.528L62.5569 32.496Z" fill="#00579F"/>
<path d="M69.4492 44.9522L71.5225 39.3522C71.5225 39.3922 71.9467 38.1762 72.2029 37.4322L72.5631 39.1602C72.5631 39.1602 73.5477 43.9602 73.7558 44.9602L69.4492 44.9522ZM75.8531 32.0082H71.8507C71.2768 31.9389 70.6964 32.0656 70.2037 32.3677C69.7111 32.6698 69.3351 33.1296 69.137 33.6722L61.4282 52.0722H66.8716L67.9602 49.0642H74.6204C74.7725 49.7682 75.2368 52.0722 75.2368 52.0722H80.0397L75.8531 32.0082Z" fill="#00579F"/>
<path d="M34.2273 32.0082L29.1522 45.6802L28.5998 42.9042C27.3288 39.3033 24.76 36.3054 21.3954 34.4962L26.0462 52.0322H31.5296L39.6867 32.0322H34.2273V32.0082Z" fill="#00579F"/>
<path d="M24.4292 32.0082H16.0881L16 32.4002C22.508 34.0642 26.8227 38.0722 28.5918 42.8962L26.7827 33.6962C26.4865 32.4162 25.5659 32.0562 24.4372 32.0082H24.4292Z" fill="#FAA61A"/>
<path d="M98.2271 57.912V55.792C98.2386 55.6139 98.2123 55.4353 98.1498 55.2681C98.0873 55.1009 97.9901 54.9488 97.8646 54.8218C97.7391 54.6949 97.588 54.5959 97.4215 54.5315C97.2549 54.467 97.0766 54.4386 96.8982 54.448C96.6639 54.4322 96.4296 54.4796 96.2198 54.5851C96.01 54.6907 95.8324 54.8505 95.7055 55.048C95.5902 54.8563 95.4252 54.6993 95.2279 54.5936C95.0306 54.488 94.8084 54.4377 94.5848 54.448C94.3897 54.4383 94.1955 54.4797 94.0214 54.5681C93.8473 54.6565 93.6993 54.7888 93.5922 54.952V54.536H92.8477V57.92H93.5922V56.04C93.5785 55.9272 93.5891 55.8127 93.6232 55.7043C93.6572 55.5959 93.714 55.4959 93.7898 55.4112C93.8655 55.3264 93.9585 55.2587 94.0624 55.2126C94.1664 55.1666 94.279 55.1432 94.3927 55.144C94.881 55.144 95.1291 55.464 95.1291 56.04V57.928H95.8736V56.04C95.8599 55.9272 95.8705 55.8127 95.9046 55.7043C95.9386 55.5959 95.9954 55.4959 96.0712 55.4112C96.1469 55.3264 96.2399 55.2587 96.3438 55.2126C96.4478 55.1666 96.5604 55.1432 96.6741 55.144C97.1784 55.144 97.4186 55.464 97.4186 56.04V57.928L98.2271 57.912ZM109.242 54.528H108.057V53.504H107.257V54.528H106.568V55.2H107.257V56.744C107.257 57.544 107.561 58 108.433 58C108.759 58.0004 109.078 57.9089 109.354 57.736L109.138 57.104C108.941 57.2215 108.718 57.2875 108.489 57.296C108.121 57.296 108.001 57.072 108.001 56.728V55.2H109.21L109.242 54.528ZM115.526 54.44C115.345 54.4342 115.167 54.4773 115.009 54.5646C114.851 54.6519 114.72 54.7802 114.629 54.936V54.528H113.901V57.912H114.637V56.016C114.637 55.456 114.877 55.144 115.358 55.144C115.517 55.1423 115.675 55.1722 115.822 55.232L116.046 54.536C115.877 54.4745 115.698 54.442 115.518 54.44H115.526ZM106.016 54.8C105.598 54.5521 105.117 54.4299 104.631 54.448C103.774 54.448 103.222 54.856 103.222 55.528C103.222 56.08 103.63 56.424 104.391 56.528L104.735 56.576C105.135 56.632 105.327 56.736 105.327 56.928C105.327 57.12 105.055 57.336 104.527 57.336C104.122 57.3489 103.724 57.2249 103.398 56.984L103.054 57.56C103.483 57.8597 103.996 58.0139 104.519 58C105.496 58 106.064 57.536 106.064 56.896C106.064 56.256 105.616 55.992 104.879 55.88L104.535 55.832C104.215 55.792 103.959 55.728 103.959 55.496C103.959 55.264 104.199 55.096 104.607 55.096C104.978 55.1008 105.342 55.1999 105.664 55.384L106.016 54.8ZM125.764 54.448C125.584 54.4422 125.405 54.4853 125.248 54.5726C125.09 54.6599 124.958 54.7882 124.868 54.944V54.536H124.139V57.92H124.868V56.016C124.868 55.456 125.108 55.144 125.588 55.144C125.747 55.1423 125.905 55.1722 126.052 55.232L126.276 54.536C126.107 54.4745 125.928 54.442 125.748 54.44L125.764 54.448ZM116.27 56.224C116.261 56.4625 116.302 56.7002 116.39 56.9221C116.478 57.1439 116.611 57.3449 116.782 57.5121C116.952 57.6793 117.155 57.8091 117.379 57.8931C117.602 57.9772 117.841 58.0136 118.079 58C118.521 58.0225 118.954 57.8798 119.296 57.6L118.944 57.008C118.688 57.2025 118.377 57.3091 118.055 57.312C117.784 57.2887 117.531 57.1643 117.347 56.9636C117.162 56.7629 117.06 56.5004 117.06 56.228C117.06 55.9556 117.162 55.6931 117.347 55.4924C117.531 55.2916 117.784 55.1673 118.055 55.144C118.377 55.1469 118.688 55.2535 118.944 55.448L119.296 54.856C118.954 54.5761 118.521 54.4335 118.079 54.456C117.841 54.4424 117.602 54.4788 117.379 54.5629C117.155 54.6469 116.952 54.7767 116.782 54.9439C116.611 55.1111 116.478 55.3121 116.39 55.5339C116.302 55.7558 116.261 55.9935 116.27 56.232V56.224ZM123.171 56.224V54.528H122.466V54.936C122.34 54.7738 122.177 54.6442 121.99 54.5579C121.803 54.4716 121.599 54.4312 121.393 54.44C120.951 54.482 120.541 54.6872 120.242 55.0157C119.943 55.3441 119.777 55.7721 119.777 56.216C119.777 56.6599 119.943 57.0879 120.242 57.4163C120.541 57.7447 120.951 57.95 121.393 57.992C121.599 58.0008 121.803 57.9604 121.99 57.8741C122.177 57.7878 122.34 57.6582 122.466 57.496V57.904H123.203L123.171 56.224ZM120.425 56.224C120.436 56.0242 120.505 55.832 120.624 55.6712C120.743 55.5103 120.907 55.3878 121.095 55.3188C121.283 55.2498 121.487 55.2373 121.682 55.283C121.876 55.3286 122.054 55.4303 122.191 55.5754C122.329 55.7206 122.421 55.903 122.457 56.0999C122.492 56.2969 122.469 56.4998 122.39 56.6837C122.311 56.8676 122.18 57.0243 122.012 57.1346C121.845 57.2448 121.65 57.3037 121.449 57.304C121.31 57.3054 121.171 57.2779 121.043 57.2234C120.914 57.1689 120.798 57.0884 120.702 56.9871C120.606 56.8857 120.531 56.7657 120.484 56.6344C120.436 56.5031 120.416 56.3634 120.425 56.224ZM111.531 54.448C111.298 54.4511 111.067 54.5002 110.853 54.5924C110.639 54.6845 110.445 54.818 110.282 54.9851C110.119 55.1523 109.991 55.3498 109.904 55.5665C109.818 55.7832 109.775 56.0148 109.778 56.248C109.781 56.4812 109.83 56.7115 109.923 56.9258C110.015 57.1401 110.148 57.3341 110.316 57.4968C110.483 57.6595 110.681 57.7877 110.897 57.874C111.114 57.9603 111.346 58.0031 111.579 58C112.086 58.0196 112.582 57.8515 112.972 57.528L112.612 56.984C112.332 57.2082 111.986 57.3321 111.627 57.336C111.388 57.357 111.149 57.2859 110.96 57.1373C110.772 56.9886 110.646 56.7736 110.611 56.536H113.124C113.124 56.44 113.124 56.352 113.124 56.256C113.149 56.0316 113.126 55.8045 113.057 55.5895C112.988 55.3746 112.874 55.1768 112.723 55.009C112.571 54.8413 112.386 54.7074 112.18 54.6162C111.973 54.5251 111.749 54.4786 111.523 54.48L111.531 54.448ZM111.531 55.104C111.75 55.0996 111.962 55.1807 112.122 55.3301C112.282 55.4795 112.377 55.6854 112.388 55.904H110.627C110.645 55.6812 110.748 55.474 110.915 55.3251C111.082 55.1762 111.3 55.0971 111.523 55.104H111.531ZM130.023 56.224V53.2H129.286V54.968C129.16 54.8058 128.997 54.6762 128.81 54.5899C128.624 54.5036 128.419 54.4632 128.214 54.472C127.771 54.514 127.361 54.7192 127.062 55.0477C126.763 55.3761 126.597 55.8041 126.597 56.248C126.597 56.6919 126.763 57.1199 127.062 57.4483C127.361 57.7767 127.771 57.982 128.214 58.024C128.419 58.0328 128.624 57.9924 128.81 57.9061C128.997 57.8198 129.16 57.6902 129.286 57.528V57.936H130.023V56.224ZM127.277 56.224C127.288 56.0242 127.357 55.832 127.476 55.6712C127.595 55.5103 127.759 55.3878 127.947 55.3188C128.135 55.2498 128.339 55.2373 128.534 55.283C128.729 55.3286 128.906 55.4303 129.044 55.5754C129.181 55.7206 129.274 55.903 129.309 56.0999C129.344 56.2969 129.321 56.4998 129.242 56.6837C129.163 56.8676 129.032 57.0243 128.865 57.1346C128.698 57.2448 128.502 57.3037 128.302 57.304C128.161 57.3065 128.022 57.2799 127.892 57.2258C127.763 57.1718 127.646 57.0915 127.549 56.9901C127.452 56.8886 127.377 56.7681 127.329 56.6363C127.28 56.5044 127.26 56.3641 127.269 56.224H127.277ZM102.382 56.224V54.528H101.653V54.936C101.527 54.7738 101.364 54.6442 101.177 54.5579C100.99 54.4716 100.786 54.4312 100.581 54.44C100.138 54.482 99.7276 54.6872 99.4288 55.0157C99.1299 55.3441 98.9643 55.7721 98.9643 56.216C98.9643 56.6599 99.1299 57.0879 99.4288 57.4163C99.7276 57.7447 100.138 57.95 100.581 57.992C100.786 58.0008 100.99 57.9604 101.177 57.8741C101.364 57.7878 101.527 57.6582 101.653 57.496V57.904H102.39L102.382 56.224ZM99.6359 56.224C99.6469 56.0242 99.7161 55.832 99.8352 55.6712C99.9542 55.5103 100.118 55.3878 100.306 55.3188C100.494 55.2498 100.698 55.2373 100.893 55.283C101.088 55.3286 101.265 55.4303 101.403 55.5754C101.54 55.7206 101.632 55.903 101.668 56.0999C101.703 56.2969 101.68 56.4998 101.601 56.6837C101.522 56.8676 101.391 57.0243 101.224 57.1346C101.056 57.2448 100.861 57.3037 100.661 57.304C100.521 57.3054 100.382 57.2779 100.254 57.2234C100.125 57.1689 100.009 57.0884 99.9128 56.9871C99.8166 56.8857 99.7424 56.7657 99.6948 56.6344C99.6472 56.5031 99.6271 56.3634 99.6359 56.224Z" fill="black"/>
<path d="M116.943 28.728H105.776V48.776H116.943V28.728Z" fill="#FF5F00"/>
<path d="M106.456 38.752C106.455 36.8211 106.893 34.9151 107.737 33.1784C108.582 31.4417 109.811 29.9198 111.331 28.728C109.449 27.2488 107.188 26.3288 104.807 26.073C102.427 25.8173 100.022 26.2362 97.8683 27.2818C95.7145 28.3274 93.8986 29.9576 92.6281 31.986C91.3576 34.0143 90.6839 36.359 90.6839 38.752C90.6839 41.145 91.3576 43.4897 92.6281 45.518C93.8986 47.5464 95.7145 49.1766 97.8683 50.2222C100.022 51.2678 102.427 51.6867 104.807 51.431C107.188 51.1752 109.449 50.2552 111.331 48.776C109.811 47.5842 108.582 46.0623 107.737 44.3256C106.893 42.5889 106.455 40.683 106.456 38.752Z" fill="#EB001B"/>
<path d="M132 38.752C132 41.1446 131.326 43.4887 130.055 45.5167C128.785 47.5446 126.969 49.1745 124.816 50.22C122.663 51.2656 120.259 51.6846 117.878 51.4293C115.498 51.1739 113.237 50.2545 111.355 48.776C112.874 47.5827 114.101 46.0605 114.945 44.3241C115.789 42.5877 116.228 40.6825 116.228 38.752C116.228 36.8216 115.789 34.9163 114.945 33.1799C114.101 31.4435 112.874 29.9213 111.355 28.728C113.237 27.2496 115.498 26.3301 117.878 26.0748C120.259 25.8194 122.663 26.2385 124.816 27.284C126.969 28.3295 128.785 29.9594 130.055 31.9873C131.326 34.0153 132 36.3595 132 38.752Z" fill="#F79E1B"/>
</g>
<defs>
<clipPath id="clip0">
<rect width="116" height="32" fill="white" transform="translate(16 26)"/>
</clipPath>
</defs>
</svg>
