<svg width="72" height="41" viewBox="0 0 72 41" fill="none" xmlns="http://www.w3.org/2000/svg">
<g opacity="0.1">
<path d="M27.0742 0H34.233V32.0516H27.0742V0Z" fill="white"/>
<path d="M37.6495 0H44.8083V32.0516H37.6495V0Z" fill="white"/>
<path d="M46.7607 8.78564H54.5703L59.2885 22.9404L64.0068 8.78564H71.8163L59.6139 40.9999H51.8044L55.5369 31.8904L46.7607 8.78564Z" fill="white"/>
<path d="M23.9412 20.5881C23.9412 18.9129 23.6499 17.336 23.0672 15.8574C22.4845 14.3789 21.6723 13.097 20.6308 12.0117C19.5892 10.9265 18.3437 10.0634 16.8943 9.42238C15.4449 8.78145 13.8534 8.46096 12.1199 8.46094C4.5786 8.46094 0 13.8034 0 20.5881C0 27.2306 5.21508 32.4247 10.8016 32.5624L16.9822 25.7239L16.8815 25.5539V32.0817H23.9412V20.5881ZM16.8561 25.5796L11.9925 25.5919C8.65976 25.5919 4.97506 20.7955 8.73309 17.0374C12.0674 13.7031 17.0636 16.4379 17.0636 21.078L16.8561 25.5796Z" fill="white"/>
</g>
</svg>
