<svg width="156" height="40" viewBox="0 0 156 40" fill="none" xmlns="http://www.w3.org/2000/svg">
<path d="M17.1235 0L34.247 9.88627V29.6588L17.1235 39.5451L0 29.6588V9.88627L17.1235 0Z" fill="url(#paint0_linear)"/>
<path d="M14.5251 12.7817V26.7623H11.2896V15.3781H8.49347V12.7817H14.5251Z" fill="white"/>
<path d="M24.2436 12.7817V26.7623H21.0081V15.3781H18.212V12.7817H24.2436Z" fill="white"/>
<path d="M48.0956 16.5596V19.7755H54.5482V22.9705H48.0956V27.9823H43.9609V13.3646H55.4253V16.5596H48.0956Z" fill="#1D1D1D"/>
<path d="M66.0878 28.2746C63.9161 28.2746 62.2246 27.6829 61.0134 26.4996C59.8162 25.3163 59.2175 23.6387 59.2175 21.467V13.3646H63.3522V21.3417C63.3522 23.6805 64.278 24.8499 66.1296 24.8499C67.9672 24.8499 68.8861 23.6805 68.8861 21.3417V13.3646H72.9581V21.467C72.9581 23.6387 72.3525 25.3163 71.1414 26.4996C69.9441 27.6829 68.2596 28.2746 66.0878 28.2746Z" fill="#1D1D1D"/>
<path d="M80.6301 16.6431H76.1404V13.3646H89.2336V16.6431H84.7648V27.9823H80.6301V16.6431Z" fill="#1D1D1D"/>
<path d="M99.2785 28.2746C97.1067 28.2746 95.4153 27.6829 94.2041 26.4996C93.0068 25.3163 92.4082 23.6387 92.4082 21.467V13.3646H96.5429V21.3417C96.5429 23.6805 97.4687 24.8499 99.3203 24.8499C101.158 24.8499 102.077 23.6805 102.077 21.3417V13.3646H106.149V21.467C106.149 23.6387 105.543 25.3163 104.332 26.4996C103.135 27.6829 101.45 28.2746 99.2785 28.2746Z" fill="#1D1D1D"/>
<path d="M117.324 24.0981H115.068V27.9823H110.934V13.3646H117.616C118.939 13.3646 120.087 13.5874 121.062 14.0329C122.036 14.4644 122.788 15.0909 123.317 15.9123C123.846 16.7197 124.11 17.6733 124.11 18.7731C124.11 19.8312 123.86 20.757 123.359 21.5505C122.871 22.3301 122.168 22.9426 121.249 23.3881L124.403 27.9823H119.976L117.324 24.0981ZM119.934 18.7731C119.934 18.091 119.718 17.562 119.287 17.1861C118.855 16.8102 118.215 16.6223 117.365 16.6223H115.068V20.9031H117.365C118.215 20.9031 118.855 20.7222 119.287 20.3602C119.718 19.9843 119.934 19.4553 119.934 18.7731Z" fill="#1D1D1D"/>
<path d="M140.111 24.7873V27.9823H128.375V13.3646H139.84V16.5596H132.468V19.0237H138.963V22.1143H132.468V24.7873H140.111Z" fill="#1D1D1D"/>
<path d="M149.526 28.2746C148.343 28.2746 147.195 28.1284 146.081 27.8361C144.967 27.5437 144.062 27.1539 143.366 26.6667L144.724 23.6178C145.378 24.0494 146.137 24.3975 147 24.662C147.863 24.9265 148.712 25.0587 149.547 25.0587C151.134 25.0587 151.928 24.662 151.928 23.8684C151.928 23.4508 151.698 23.1445 151.239 22.9496C150.793 22.7408 150.069 22.525 149.067 22.3023C147.967 22.0656 147.048 21.815 146.311 21.5505C145.573 21.2721 144.939 20.8335 144.41 20.2349C143.881 19.6363 143.617 18.8288 143.617 17.8126C143.617 16.9216 143.86 16.1211 144.348 15.4111C144.835 14.6872 145.559 14.1164 146.519 13.6987C147.494 13.2811 148.684 13.0723 150.09 13.0723C151.051 13.0723 151.998 13.1836 152.93 13.4064C153.863 13.6152 154.684 13.9284 155.394 14.3461L154.121 17.4158C152.728 16.664 151.378 16.2881 150.069 16.2881C149.248 16.2881 148.649 16.4134 148.274 16.664C147.898 16.9007 147.71 17.2139 147.71 17.6037C147.71 17.9935 147.932 18.2859 148.378 18.4808C148.823 18.6757 149.54 18.8776 150.529 19.0864C151.643 19.323 152.561 19.5806 153.285 19.859C154.023 20.1235 154.657 20.5551 155.186 21.1537C155.729 21.7384 156 22.5389 156 23.5552C156 24.4323 155.756 25.2258 155.269 25.9358C154.782 26.6458 154.051 27.2166 153.076 27.6481C152.102 28.0658 150.919 28.2746 149.526 28.2746Z" fill="#1D1D1D"/>
<defs>
<linearGradient id="paint0_linear" x1="17.1235" y1="0" x2="17.1235" y2="39.5451" gradientUnits="userSpaceOnUse">
<stop stop-color="#0BB57A"/>
<stop offset="1" stop-color="#108956"/>
</linearGradient>
</defs>
</svg>
