<svg width="233" height="38" viewBox="0 0 233 38" fill="none" xmlns="http://www.w3.org/2000/svg">
<path d="M73.7196 32.28C71.8763 32.28 70.0913 32 68.3646 31.44C66.6613 30.8567 65.3196 30.11 64.3396 29.2L65.6346 26.47C66.5679 27.31 67.7579 27.9984 69.2046 28.535C70.6746 29.0484 72.1796 29.305 73.7196 29.305C75.7496 29.305 77.2663 28.9667 78.2696 28.29C79.2729 27.59 79.7746 26.6684 79.7746 25.525C79.7746 24.685 79.4946 24.0084 78.9346 23.495C78.3979 22.9584 77.7213 22.55 76.9046 22.27C76.1113 21.99 74.9796 21.675 73.5096 21.325C71.6663 20.8817 70.1729 20.4384 69.0296 19.995C67.9096 19.5517 66.9413 18.875 66.1246 17.965C65.3313 17.0317 64.9346 15.7834 64.9346 14.22C64.9346 12.9134 65.2729 11.735 65.9496 10.685C66.6496 9.63503 67.6996 8.79503 69.0996 8.16503C70.4996 7.53503 72.2379 7.22003 74.3146 7.22003C75.7613 7.22003 77.1846 7.4067 78.5846 7.78003C79.9846 8.15336 81.1863 8.69003 82.1896 9.39003L81.0346 12.19C80.0079 11.5367 78.9113 11.0467 77.7446 10.72C76.5779 10.37 75.4346 10.195 74.3146 10.195C72.3313 10.195 70.8379 10.5567 69.8346 11.28C68.8546 12.0034 68.3646 12.9367 68.3646 14.08C68.3646 14.92 68.6446 15.6084 69.2046 16.145C69.7646 16.6584 70.4529 17.0667 71.2696 17.37C72.1096 17.65 73.2413 17.9534 74.6646 18.28C76.5079 18.7234 77.9896 19.1667 79.1096 19.61C80.2296 20.0534 81.1863 20.73 81.9796 21.64C82.7963 22.55 83.2046 23.775 83.2046 25.315C83.2046 26.5984 82.8546 27.7767 82.1546 28.85C81.4546 29.9 80.3929 30.74 78.9696 31.37C77.5463 31.9767 75.7963 32.28 73.7196 32.28Z" fill="white"/>
<path d="M97.9079 30.915C97.4179 31.335 96.8112 31.6617 96.0879 31.895C95.3645 32.105 94.6179 32.21 93.8479 32.21C91.9812 32.21 90.5345 31.7084 89.5079 30.705C88.4812 29.7017 87.9679 28.2667 87.9679 26.4V16.215H84.8179V13.45H87.9679V9.39003H91.3279V13.45H96.6479V16.215H91.3279V26.26C91.3279 27.2634 91.5729 28.0334 92.0629 28.57C92.5762 29.1067 93.2995 29.375 94.2329 29.375C95.2595 29.375 96.1345 29.0834 96.8579 28.5L97.9079 30.915Z" fill="white"/>
<path d="M108.95 32.21C107.106 32.21 105.45 31.8017 103.98 30.985C102.51 30.1684 101.355 29.0484 100.515 27.625C99.6982 26.1784 99.2898 24.545 99.2898 22.725C99.2898 20.905 99.6982 19.2834 100.515 17.86C101.355 16.4134 102.51 15.2934 103.98 14.5C105.45 13.6834 107.106 13.275 108.95 13.275C110.793 13.275 112.438 13.6834 113.885 14.5C115.355 15.2934 116.498 16.4134 117.315 17.86C118.155 19.2834 118.575 20.905 118.575 22.725C118.575 24.545 118.155 26.1784 117.315 27.625C116.498 29.0484 115.355 30.1684 113.885 30.985C112.438 31.8017 110.793 32.21 108.95 32.21ZM108.95 29.27C110.14 29.27 111.201 29.0017 112.135 28.465C113.091 27.905 113.838 27.135 114.375 26.155C114.911 25.1517 115.18 24.0084 115.18 22.725C115.18 21.4417 114.911 20.31 114.375 19.33C113.838 18.3267 113.091 17.5567 112.135 17.02C111.201 16.4834 110.14 16.215 108.95 16.215C107.76 16.215 106.686 16.4834 105.73 17.02C104.796 17.5567 104.05 18.3267 103.49 19.33C102.953 20.31 102.685 21.4417 102.685 22.725C102.685 24.0084 102.953 25.1517 103.49 26.155C104.05 27.135 104.796 27.905 105.73 28.465C106.686 29.0017 107.76 29.27 108.95 29.27Z" fill="white"/>
<path d="M130.957 32.21C129.067 32.21 127.375 31.8017 125.882 30.985C124.412 30.1684 123.257 29.0484 122.417 27.625C121.577 26.1784 121.157 24.545 121.157 22.725C121.157 20.905 121.577 19.2834 122.417 17.86C123.257 16.4134 124.412 15.2934 125.882 14.5C127.375 13.6834 129.067 13.275 130.957 13.275C132.637 13.275 134.13 13.6134 135.437 14.29C136.767 14.9667 137.793 15.9467 138.517 17.23L135.962 18.875C135.378 17.9884 134.655 17.3234 133.792 16.88C132.928 16.4367 131.972 16.215 130.922 16.215C129.708 16.215 128.612 16.4834 127.632 17.02C126.675 17.5567 125.917 18.3267 125.357 19.33C124.82 20.31 124.552 21.4417 124.552 22.725C124.552 24.0317 124.82 25.1867 125.357 26.19C125.917 27.17 126.675 27.9284 127.632 28.465C128.612 29.0017 129.708 29.27 130.922 29.27C131.972 29.27 132.928 29.0484 133.792 28.605C134.655 28.1617 135.378 27.4967 135.962 26.61L138.517 28.22C137.793 29.5034 136.767 30.495 135.437 31.195C134.13 31.8717 132.637 32.21 130.957 32.21Z" fill="white"/>
<path d="M149.487 23.355L145.637 26.925V32H142.277V6.03003H145.637V22.69L155.752 13.45H159.812L152.007 21.115L160.582 32H156.452L149.487 23.355Z" fill="white"/>
<path d="M180.209 6.03003V32H176.989V29.06C176.242 30.0867 175.297 30.8684 174.154 31.405C173.01 31.9417 171.75 32.21 170.374 32.21C168.577 32.21 166.967 31.8134 165.544 31.02C164.12 30.2267 163 29.1184 162.184 27.695C161.39 26.2484 160.994 24.5917 160.994 22.725C160.994 20.8584 161.39 19.2134 162.184 17.79C163 16.3667 164.12 15.2584 165.544 14.465C166.967 13.6717 168.577 13.275 170.374 13.275C171.704 13.275 172.929 13.5317 174.049 14.045C175.169 14.535 176.102 15.27 176.849 16.25V6.03003H180.209ZM170.654 29.27C171.82 29.27 172.882 29.0017 173.839 28.465C174.795 27.905 175.542 27.135 176.079 26.155C176.615 25.1517 176.884 24.0084 176.884 22.725C176.884 21.4417 176.615 20.31 176.079 19.33C175.542 18.3267 174.795 17.5567 173.839 17.02C172.882 16.4834 171.82 16.215 170.654 16.215C169.464 16.215 168.39 16.4834 167.434 17.02C166.5 17.5567 165.754 18.3267 165.194 19.33C164.657 20.31 164.389 21.4417 164.389 22.725C164.389 24.0084 164.657 25.1517 165.194 26.155C165.754 27.135 166.5 27.905 167.434 28.465C168.39 29.0017 169.464 29.27 170.654 29.27Z" fill="white"/>
<path d="M192.971 13.275C195.538 13.275 197.498 13.905 198.851 15.165C200.228 16.425 200.916 18.3034 200.916 20.8V32H197.731V29.55C197.171 30.4134 196.366 31.0784 195.316 31.545C194.289 31.9884 193.064 32.21 191.641 32.21C189.564 32.21 187.896 31.7084 186.636 30.705C185.4 29.7017 184.781 28.3834 184.781 26.75C184.781 25.1167 185.376 23.81 186.566 22.83C187.756 21.8267 189.646 21.325 192.236 21.325H197.556V20.66C197.556 19.2134 197.136 18.105 196.296 17.335C195.456 16.565 194.219 16.18 192.586 16.18C191.49 16.18 190.416 16.3667 189.366 16.74C188.316 17.09 187.43 17.5684 186.706 18.175L185.306 15.655C186.263 14.885 187.406 14.3017 188.736 13.905C190.066 13.485 191.478 13.275 192.971 13.275ZM192.201 29.62C193.484 29.62 194.593 29.34 195.526 28.78C196.46 28.1967 197.136 27.38 197.556 26.33V23.74H192.376C189.529 23.74 188.106 24.6967 188.106 26.61C188.106 27.5434 188.468 28.2784 189.191 28.815C189.915 29.3517 190.918 29.62 192.201 29.62Z" fill="white"/>
<path d="M206.784 6.03003H210.144V32H206.784V6.03003Z" fill="white"/>
<path d="M232.975 22.83C232.975 23.0867 232.951 23.425 232.905 23.845H217.855C218.065 25.4784 218.776 26.7967 219.99 27.8C221.226 28.78 222.755 29.27 224.575 29.27C226.791 29.27 228.576 28.5234 229.93 27.03L231.785 29.2C230.945 30.18 229.895 30.9267 228.635 31.44C227.398 31.9534 226.01 32.21 224.47 32.21C222.51 32.21 220.771 31.8134 219.255 31.02C217.738 30.2034 216.56 29.0717 215.72 27.625C214.903 26.1784 214.495 24.545 214.495 22.725C214.495 20.9284 214.891 19.3067 215.685 17.86C216.501 16.4134 217.61 15.2934 219.01 14.5C220.433 13.6834 222.031 13.275 223.805 13.275C225.578 13.275 227.153 13.6834 228.53 14.5C229.93 15.2934 231.015 16.4134 231.785 17.86C232.578 19.3067 232.975 20.9634 232.975 22.83ZM223.805 16.11C222.195 16.11 220.841 16.6 219.745 17.58C218.671 18.56 218.041 19.8434 217.855 21.43H229.755C229.568 19.8667 228.926 18.595 227.83 17.615C226.756 16.6117 225.415 16.11 223.805 16.11Z" fill="white"/>
<rect width="52.3396" height="38" fill="#04AB74"/>
<path d="M40.1561 11.4793L40.1557 11.4783C40.0771 11.2888 39.9629 11.119 39.8209 10.9769L39.8208 10.9768C39.8063 10.9623 39.7921 10.9512 39.7796 10.9426C39.7788 10.9421 39.7781 10.9416 39.7773 10.9411C39.6459 10.82 39.493 10.7157 39.318 10.6432L39.3173 10.6429C39.1574 10.5773 38.9956 10.5596 38.8656 10.5478C38.8632 10.5472 38.8588 10.546 38.8515 10.544L38.8495 10.5435C38.8307 10.5383 38.7852 10.5259 38.7308 10.5259H28.382C27.5287 10.5259 26.8384 11.216 26.8384 12.0695C26.8384 12.923 27.5286 13.6131 28.382 13.6131H35.0199L25.4034 23.2842L21.6817 18.5195C21.6816 18.5195 21.6816 18.5194 21.6816 18.5194C21.4131 18.1754 21.0133 17.9623 20.581 17.9298L20.5803 17.9298C20.1332 17.8975 19.7178 18.0506 19.4034 18.3481L19.4034 18.3481L9.4686 27.7539L9.46852 27.754C8.84956 28.3405 8.82341 29.3174 9.40833 29.9363L9.40938 29.9374C9.7145 30.2564 10.1221 30.4169 10.5305 30.4169C10.9115 30.4169 11.293 30.2763 11.5907 29.9956L11.5911 29.9953L20.2926 21.7565L24.0467 26.5627C24.3199 26.913 24.7292 27.1277 25.1721 27.1539L25.173 27.154C25.6149 27.1786 26.0452 27.0153 26.3584 26.7021L26.3589 26.7016L37.1872 15.8111V22.4182C37.1872 23.2716 37.8773 23.9618 38.7308 23.9618C39.5842 23.9618 40.2744 23.2717 40.2744 22.4182V12.0696L40.2744 12.0682L40.2744 12.0663C40.2728 11.8647 40.2327 11.6664 40.1561 11.4793Z" fill="white" stroke="white" stroke-width="0.5"/>
</svg>
